<svg width="328" height="108" viewBox="0 0 328 108" fill="none" xmlns="http://www.w3.org/2000/svg">
<path d="M287.698 15.5735C285.974 15.8694 284.407 17.6368 283.761 20.019C283.248 21.9073 283.731 24.1255 284.822 24.8926C285.428 25.3242 286.333 25.4239 287.106 25.1597C287.889 24.8872 288.873 24.1011 289.413 23.3106C291.044 20.9117 291.252 18.0431 289.918 16.3934C289.332 15.6689 288.628 15.4106 287.698 15.5735Z" fill="#F0EDED"/>
<path d="M294.859 21.2697C293.317 21.5522 291.666 22.7358 290.667 24.2789C290.204 24.9915 289.992 25.5922 289.869 26.5308C289.764 27.3242 289.773 27.4733 289.975 28.0937C290.362 29.322 290.93 29.7483 292.335 29.8603C293.046 29.9224 293.249 29.8922 294.021 29.6377C294.743 29.396 295.051 29.2132 295.792 28.6191C296.722 27.8845 297.23 27.2572 297.838 26.0921C298.218 25.3675 298.398 24.1413 298.248 23.3411C298.101 22.5906 297.485 21.7337 296.902 21.4926C296.311 21.2405 295.499 21.1541 294.859 21.2697Z" fill="#F0EDED"/>
<path d="M278.205 18.9395C277.192 19.1595 276.154 20.283 275.535 21.8211C275.267 22.4926 275.038 24.0174 275.106 24.7172C275.242 26.0576 276.016 27.5779 276.809 28.0263C277.619 28.487 278.811 28.2728 279.658 27.5165C280.635 26.6407 281.269 25.3511 281.466 23.8513C281.804 21.2872 280.77 19.158 279.086 18.9372C278.807 18.8973 278.409 18.8997 278.205 18.9395Z" fill="#F0EDED"/>
<path d="M281.877 28.9966C280.569 29.0167 278.945 29.4847 277.271 30.3398C275.405 31.2858 273.604 32.7439 273.226 33.597C272.643 34.9333 272.998 36.3347 274.123 37.1362C274.711 37.5554 275.446 37.8674 276.775 38.2644C278.141 38.6764 278.852 38.9554 279.51 39.3452C280.58 39.991 281.048 40.5311 282.197 42.4402C282.685 43.2593 283.232 44.0669 283.409 44.2302C284.401 45.1803 285.796 45.4388 286.644 44.8205C287.681 44.0617 288.348 42.1558 288.491 39.4946C288.655 36.5998 288.522 35.0922 287.963 33.3067C287.55 31.9858 286.917 31.0475 285.942 30.3266C284.865 29.5221 283.177 28.9753 281.877 28.9966Z" fill="#F0EDED"/>
<path d="M295.078 31.3078C294.061 31.4187 293.107 31.8345 292.134 32.6123C290.928 33.5737 290.387 34.3738 290.173 35.4966C289.983 36.5046 290.064 37.0386 290.488 37.7005C290.747 38.1023 290.951 38.2793 291.341 38.4828C293.355 39.5001 296.251 38.4252 297.769 36.0987C298.243 35.3681 298.271 35.303 298.388 34.4128C298.501 33.5613 298.489 33.4316 298.301 32.9216C298.181 32.6088 297.955 32.2413 297.787 32.0793C297.153 31.5057 296.104 31.2079 295.078 31.3078Z" fill="#F0EDED"/>
<path d="M301.915 64.4394C301.314 63.8664 300.876 63.6645 299.939 63.5093C298.997 63.3461 297.804 63.4893 296.744 63.8936C295.9 64.2093 294.503 65.2481 294.072 65.8803C293.427 66.8042 293.105 67.8473 293.241 68.5498C293.366 69.2363 293.905 69.9387 294.594 70.338C296.895 71.6744 300.866 70.3887 302.21 67.8781C302.964 66.4899 302.859 65.3448 301.915 64.4394Z" fill="#F0EDED"/>
<path d="M303.044 73.9161C301.564 72.4138 298.625 71.9118 296.547 72.7975C295.745 73.1415 294.931 73.8192 294.565 74.4628C294.165 75.1563 294.086 76.0665 294.369 76.7315C295.279 78.8978 298.339 79.9809 301.235 79.1597C302.543 78.7985 303.601 77.8199 303.94 76.668C304.176 75.8689 303.785 74.6604 303.044 73.9161Z" fill="#F0EDED"/>
<path d="M293.057 59.5099C291.519 58.3266 288.54 58.9583 286.85 60.8142C285.901 61.8676 285.347 63.3113 285.517 64.3486C285.586 64.7526 285.667 64.9205 285.997 65.3347C286.479 65.9361 286.945 66.2129 287.709 66.3171C288.974 66.5154 290.181 66.2064 291.417 65.3708C292.659 64.5432 293.472 63.4592 293.838 62.1438C294.06 61.3425 293.656 59.9637 293.057 59.5099Z" fill="#F0EDED"/>
<path d="M287.993 68.6775C286.587 67.3353 283.884 66.1182 281.421 65.7056C279.895 65.4483 279.322 65.5028 278.594 65.9716C277.657 66.572 277.227 67.4073 277.307 68.4637C277.377 69.3227 277.629 70.0591 278.381 71.575C279.823 74.449 279.938 75.4555 279.178 78.5149C278.738 80.2931 278.698 80.671 278.828 81.3654C279.201 83.3194 280.602 84.017 282.609 83.2451C283.355 82.9544 284.642 82.0578 285.833 81.0045C287.785 79.2783 288.709 78.1717 289.535 76.5864C290.332 75.0589 290.46 73.3806 289.914 71.7115C289.638 70.8729 288.639 69.3004 287.993 68.6775Z" fill="#F0EDED"/>
<path d="M295.69 80.5232C294.539 79.6518 293.268 79.1937 291.914 79.169C289.312 79.1242 287.572 80.8735 288.263 82.8549C288.825 84.464 290.288 85.5713 292.316 85.9226C293.154 86.0677 293.57 86.0699 294.295 85.9506C295.186 85.8039 295.23 85.7835 295.896 85.276C296.952 84.4791 297.296 83.671 297.033 82.6315C296.874 82.03 296.133 80.8658 295.69 80.5232Z" fill="#F0EDED"/>
<path d="M250.077 43.4233C248.892 43.5415 247.852 44.1844 246.997 45.34C245.53 47.301 245.102 49.642 245.875 51.5102C246.266 52.4701 246.689 52.8205 247.648 53.0062C248.275 53.1277 248.468 53.1154 248.942 52.9689C251.44 52.1714 253.395 48.4375 252.725 45.7345C252.335 44.1789 251.329 43.2985 250.077 43.4233Z" fill="#F0EDED"/>
<path d="M257.039 49.4515C255.069 49.5865 252.836 51.2498 251.946 53.243C251.563 54.1027 251.44 54.7346 251.507 55.4826C251.569 56.2 251.824 56.8056 252.264 57.2783C252.568 57.6054 252.691 57.6592 253.424 57.8309C254.055 57.9829 254.384 58.007 254.9 57.9481C256.595 57.75 258.335 56.4977 259.43 54.6932C259.796 54.0885 259.885 53.8574 260.017 53.1181C260.215 52.0637 260.142 51.4039 259.744 50.7008C259.584 50.4214 259.289 50.0961 259.094 49.959C258.616 49.6478 257.658 49.4026 257.039 49.4515Z" fill="#F0EDED"/>
<path d="M240.348 46.3063C238.858 46.5839 237.432 48.4237 237.051 50.5553C236.782 52.0627 237.007 53.4176 237.71 54.4976C238.173 55.2132 238.659 55.5359 239.41 55.6019C240.103 55.6764 240.683 55.471 241.384 54.9114C242.374 54.1198 243.041 52.8979 243.314 51.3712C243.58 49.883 243.383 48.5334 242.75 47.4869C242.267 46.6681 241.195 46.1526 240.348 46.3063Z" fill="#F0EDED"/>
<path d="M242.673 56.5627C241.727 56.6277 239.578 57.2843 238.335 57.888C237.134 58.4699 235.386 59.7109 234.906 60.3134C234.014 61.4619 234.13 63.1633 235.165 64.1487C235.655 64.6111 236.417 64.9874 238.099 65.6112C241.105 66.7203 241.717 67.2462 243.177 69.9631C244.316 72.0715 244.841 72.6005 246.041 72.8231C247.962 73.1754 249.225 71.2344 249.622 67.3075C250.201 61.6675 249.209 58.7332 246.235 57.2828C245.227 56.7893 243.744 56.4921 242.673 56.5627Z" fill="#F0EDED"/>
<path d="M256.86 59.5207C255.319 59.5002 253.67 60.2934 252.446 61.6457C251.877 62.2705 251.549 62.9321 251.405 63.7386C251.12 65.3325 251.782 66.3748 253.377 66.8428C254.998 67.3257 257.286 66.4775 258.676 64.8892C259.921 63.4715 260.19 61.8051 259.381 60.625C258.942 59.9837 257.899 59.5233 256.86 59.5207Z" fill="#F0EDED"/>
<path d="M203.83 64.4425C202.679 64.1289 201.49 64.3598 200.305 65.1382C198.28 66.4538 197.104 68.4983 197.211 70.5291C197.261 71.5705 197.542 72.0513 198.381 72.5692C198.929 72.9079 199.115 72.9655 199.609 72.998C202.218 73.1446 205.288 70.3396 205.552 67.5615C205.701 65.9614 205.047 64.7742 203.83 64.4425Z" fill="#F0EDED"/>
<path d="M208.373 72.5972C206.479 72.018 203.832 72.7792 202.337 74.3314C201.694 75.0014 201.37 75.5508 201.185 76.277C201.006 76.9729 201.045 77.6326 201.301 78.234C201.479 78.6501 201.577 78.745 202.208 79.1686C202.75 79.5375 203.051 79.6782 203.555 79.8078C205.212 80.2292 207.26 79.6771 208.885 78.3755C209.428 77.9388 209.588 77.7537 209.957 77.1069C210.491 76.188 210.641 75.5424 210.499 74.7393C210.441 74.4198 210.272 74.0087 210.135 73.8102C209.789 73.3465 208.971 72.7731 208.373 72.5972Z" fill="#F0EDED"/>
<path d="M193.742 63.6626C192.252 63.3893 190.305 64.6057 189.242 66.4704C188.491 67.7891 188.254 69.1419 188.557 70.408C188.756 71.2459 189.105 71.723 189.789 72.0542C190.414 72.3723 191.027 72.3874 191.87 72.1132C193.061 71.7249 194.091 70.8167 194.852 69.4812C195.594 68.1793 195.855 66.8414 195.607 65.632C195.424 64.6901 194.589 63.8221 193.742 63.6626Z" fill="#F0EDED"/>
<path d="M192.537 74.1254C191.627 73.8474 189.392 73.694 188.025 73.8154C186.705 73.9315 184.653 74.4703 184.004 74.8641C182.786 75.6227 182.332 77.2612 182.978 78.557C183.284 79.1665 183.876 79.7929 185.248 80.9809C187.704 83.099 188.105 83.8118 188.577 86.8853C188.949 89.2727 189.268 89.9575 190.321 90.5964C192.008 91.6152 193.836 90.2454 195.508 86.7013C197.917 81.6142 197.957 78.5044 195.644 76.0774C194.86 75.2529 193.567 74.4429 192.537 74.1254Z" fill="#F0EDED"/>
<path d="M204.876 81.9869C203.435 81.4152 201.625 81.5691 200.029 82.4C199.287 82.7825 198.761 83.2861 198.359 83.9917C197.564 85.386 197.841 86.602 199.184 87.6129C200.546 88.6472 202.974 88.6709 204.805 87.6779C206.443 86.7931 207.247 85.3251 206.877 83.927C206.677 83.1678 205.85 82.3617 204.876 81.9869Z" fill="#F0EDED"/>
<path d="M155.749 82.1271C154.85 81.3147 153.686 80.973 152.292 81.124C149.917 81.3688 147.992 82.6589 147.224 84.5288C146.825 85.4853 146.873 86.0464 147.404 86.8976C147.752 87.4542 147.893 87.5913 148.322 87.8483C150.598 89.1837 154.545 88.086 155.964 85.7176C156.779 84.3518 156.699 82.9861 155.749 82.1271Z" fill="#F0EDED"/>
<path d="M156.349 91.5343C154.898 90.1412 152.202 89.6022 150.201 90.3037C149.338 90.6074 148.814 90.9504 148.339 91.516C147.883 92.0575 147.636 92.6665 147.61 93.3242C147.592 93.7788 147.64 93.9094 148.025 94.5802C148.354 95.1609 148.564 95.4261 148.961 95.7748C150.266 96.917 152.337 97.3672 154.348 96.9501C155.021 96.8093 155.243 96.7172 155.849 96.3075C156.719 95.7305 157.129 95.2209 157.343 94.4355C157.428 94.1225 157.451 93.6759 157.412 93.4345C157.299 92.8591 156.81 91.9677 156.349 91.5343Z" fill="#F0EDED"/>
<path d="M147.038 76.774C145.818 75.8413 143.555 76.0333 141.809 77.2144C140.573 78.0498 139.785 79.1531 139.518 80.428C139.339 81.2707 139.449 81.8596 139.921 82.4719C140.346 83.0456 140.889 83.3419 141.761 83.4852C142.995 83.6869 144.305 83.348 145.556 82.502C146.775 81.6773 147.579 80.5985 147.871 79.3998C148.108 78.4712 147.729 77.3076 147.038 76.774Z" fill="#F0EDED"/>
<path d="M141.503 85.5967C140.806 84.9276 138.867 83.7588 137.59 83.2369C136.358 82.7319 134.289 82.2681 133.539 82.3213C132.124 82.4394 131.02 83.6985 131.047 85.1582C131.062 85.8461 131.326 86.6805 132.05 88.3788C133.35 91.4107 133.406 92.2345 132.52 95.2074C131.838 97.5194 131.832 98.2801 132.504 99.3388C133.582 101.031 135.804 100.646 138.811 98.2405C143.137 94.7923 144.497 92.0228 143.457 88.7801C143.105 87.6793 142.291 86.3563 141.503 85.5967Z" fill="#F0EDED"/>
<path d="M149.216 98.3371C148.169 97.16 146.48 96.4627 144.696 96.4709C143.868 96.4717 143.182 96.6801 142.521 97.127C141.215 98.0102 140.946 99.2282 141.719 100.754C142.499 102.31 144.666 103.451 146.73 103.406C148.575 103.369 149.921 102.424 150.184 101C150.329 100.227 149.93 99.1228 149.216 98.3371Z" fill="#F0EDED"/>
<path d="M90.4122 68.586C89.2227 68.5491 88.1137 69.0516 87.1265 70.0869C85.4362 71.8417 84.7305 74.1087 85.2724 76.0628C85.5452 77.066 85.9235 77.4687 86.8523 77.7778C87.4596 77.9798 87.6525 77.9927 88.1408 77.9091C90.7152 77.4429 93.1032 73.9926 92.7622 71.2236C92.5625 69.6295 91.67 68.6251 90.4122 68.586Z" fill="#F0EDED"/>
<path d="M96.5962 75.4732C94.6258 75.3508 92.2102 76.7106 91.0875 78.5722C90.6048 79.3754 90.4073 79.9864 90.3836 80.7372C90.3594 81.4572 90.5389 82.091 90.9187 82.6173C91.181 82.9814 91.2974 83.0509 92.0033 83.3165C92.611 83.5494 92.935 83.6162 93.454 83.6248C95.1594 83.6488 97.0363 82.6327 98.3395 80.9849C98.7748 80.4325 98.8908 80.2148 99.1107 79.4985C99.4338 78.4781 99.4408 77.814 99.1295 77.0645C99.0044 76.7666 98.7511 76.4054 98.5743 76.2441C98.137 75.873 97.2163 75.5052 96.5962 75.4732Z" fill="#F0EDED"/>
<path d="M80.4133 70.1814C78.9019 70.263 77.2665 71.9029 76.6324 73.9681C76.184 75.4287 76.2446 76.8022 76.8128 77.9653C77.1865 78.7355 77.6299 79.1188 78.3673 79.2821C79.0453 79.4461 79.6458 79.3178 80.4083 78.8537C81.486 78.1972 82.2942 77.0716 82.7483 75.5924C83.191 74.1505 83.1572 72.7859 82.6547 71.6652C82.2738 70.79 81.2727 70.1392 80.4133 70.1814Z" fill="#F0EDED"/>
<path d="M81.4891 80.6593C80.5424 80.6007 78.3316 80.9726 77.026 81.4098C75.7647 81.831 73.8815 82.8348 73.3333 83.3702C72.3104 84.3936 72.2207 86.0966 73.1294 87.209C73.5596 87.7315 74.2709 88.204 75.8644 89.0418C78.714 90.5333 79.2578 91.1346 80.3801 94.0201C81.2576 96.2603 81.7153 96.8535 82.8793 97.2305C84.7428 97.8299 86.2285 96.0684 87.0937 92.224C88.3454 86.7035 87.7135 83.6632 84.9371 81.8372C83.9956 81.2164 82.5605 80.7287 81.4891 80.6593Z" fill="#F0EDED"/>
<path d="M95.21 85.4401C93.6833 85.2192 91.9523 85.7917 90.5755 86.9741C89.9355 87.5199 89.5305 88.1337 89.2907 88.9151C88.8166 90.4594 89.3487 91.5797 90.8749 92.2515C92.425 92.9415 94.7967 92.3977 96.3668 91.0027C97.7725 89.7581 98.2398 88.1398 97.5783 86.8637C97.2202 86.1704 96.2406 85.5779 95.21 85.4401Z" fill="#F0EDED"/>
<path d="M19.6838 90.2042C18.4943 90.1673 17.3853 90.6699 16.3981 91.7051C14.7078 93.4599 14.0021 95.7269 14.544 97.6809C14.8168 98.6842 15.1951 99.0869 16.124 99.3959C16.7313 99.598 16.9242 99.6109 17.4125 99.5273C19.9868 99.0611 22.3748 95.6108 22.0338 92.8418C21.8341 91.2477 20.9416 90.2433 19.6838 90.2042Z" fill="#F0EDED"/>
<path d="M25.8677 97.0904C23.8973 96.9681 21.4817 98.3278 20.359 100.189C19.8762 100.993 19.6788 101.604 19.655 102.354C19.6309 103.074 19.8104 103.708 20.1902 104.234C20.4525 104.599 20.5689 104.668 21.2748 104.934C21.8825 105.167 22.2065 105.233 22.7255 105.242C24.4309 105.266 26.3078 104.25 27.611 102.602C28.0463 102.05 28.1624 101.832 28.3823 101.116C28.7053 100.095 28.7123 99.4312 28.401 98.6817C28.276 98.3838 28.0226 98.0227 27.8458 97.8613C27.4085 97.4903 26.4878 97.1225 25.8677 97.0904Z" fill="#F0EDED"/>
<path d="M9.68476 91.7991C8.17336 91.8807 6.53793 93.5206 5.90386 95.5858C5.45545 97.0464 5.51606 98.4199 6.08425 99.5829C6.45804 100.353 6.90142 100.737 7.63876 100.9C8.3168 101.064 8.91727 100.935 9.67986 100.471C10.7575 99.8149 11.5657 98.6893 12.0198 97.2102C12.4625 95.7682 12.4287 94.4036 11.9262 93.2829C11.5453 92.4077 10.5442 91.7569 9.68476 91.7991Z" fill="#F0EDED"/>
<path d="M10.7606 102.277C9.81393 102.218 7.60306 102.59 6.29745 103.028C5.03613 103.449 3.15298 104.453 2.60474 104.988C1.58182 106.011 1.49215 107.714 2.40083 108.827C2.83105 109.349 3.54241 109.822 5.13586 110.659C7.9855 112.151 8.52934 112.752 9.65166 115.638C10.5291 117.878 10.9869 118.471 12.1508 118.848C14.0143 119.448 15.5001 117.686 16.3652 113.842C17.6169 108.321 16.985 105.281 14.2086 103.455C13.2671 102.834 11.832 102.346 10.7606 102.277Z" fill="#F0EDED"/>
<path d="M24.4817 107.058C22.9549 106.837 21.2239 107.409 19.8471 108.592C19.2071 109.138 18.8021 109.751 18.5623 110.533C18.0882 112.077 18.6203 113.197 20.1465 113.869C21.6966 114.559 24.0684 114.015 25.6384 112.62C27.0441 111.376 27.5114 109.758 26.8499 108.481C26.4919 107.788 25.5123 107.196 24.4817 107.058Z" fill="#F0EDED"/>
<path d="M258.629 92.8834C257.736 92.1665 256.664 91.9016 255.236 92.0417C252.742 92.2885 250.751 93.7126 250.138 95.6879C250.043 95.9976 250.004 96.4429 250.034 96.6857C250.431 99.2943 254.315 100.114 257.385 98.2454C258.508 97.5561 259.109 96.8514 259.504 95.7516C259.849 94.774 259.483 93.5684 258.629 92.8834Z" fill="#F0EDED"/>
<path d="M250.564 87.6493C250.158 87.2088 249.839 87.0547 249.101 86.9121C247.803 86.6521 246.439 86.9228 245.191 87.7009C243.963 88.4555 243.161 89.4564 242.803 90.6583C242.544 91.5372 242.59 92.0545 242.966 92.7076C244.341 95.0587 248.852 94.2132 250.627 91.274C250.819 90.961 251.043 90.514 251.122 90.2713C251.406 89.4912 251.148 88.2639 250.564 87.6493Z" fill="#F0EDED"/>
<path d="M258.897 102.298C257.924 101.482 256.544 100.966 255.129 100.882C251.926 100.695 249.579 103.001 250.664 105.248C251.631 107.251 254.326 108.38 257.01 107.912C258.887 107.583 260.28 106.146 260.206 104.61C260.174 104.061 259.425 102.742 258.897 102.298Z" fill="#F0EDED"/>
<path d="M245.007 96.5936C244.145 95.572 242.847 94.6289 241.1 93.761C239.904 93.1644 237.356 92.4434 236.636 92.5051C236.051 92.5517 235.157 92.9949 234.801 93.4216C233.85 94.5612 233.908 95.7079 235.028 98.5258C236.189 101.454 236.228 102.397 235.253 105.338C234.671 107.1 234.598 107.43 234.657 108.178C234.717 108.948 235.227 109.928 235.733 110.238C237.197 111.146 239.64 110.203 242.863 107.499C244.918 105.786 246.052 104.203 246.484 102.465C246.738 101.442 246.719 100.384 246.414 99.3229C246.225 98.6331 245.43 97.0809 245.007 96.5936Z" fill="#F0EDED"/>
<path d="M251.509 108.75C250.483 107.728 248.893 107.093 247.254 107.057C245.643 107.015 244.142 108.054 243.89 109.383C243.646 110.707 244.733 112.464 246.373 113.376C247.539 114.014 249.345 114.264 250.496 113.945C252.063 113.513 252.994 112.204 252.688 110.836C252.548 110.195 252.013 109.266 251.509 108.75Z" fill="#F0EDED"/>
<path d="M333.168 7.20995C332.39 6.96048 331.911 6.97375 331.001 7.25162C330.082 7.52475 329.064 8.18674 328.273 9.02517C327.64 9.68718 326.806 11.2493 326.677 12.0128C326.475 13.1358 326.613 14.2218 327.026 14.7956C327.422 15.36 328.198 15.7536 328.985 15.8068C331.614 15.987 334.672 13.0526 334.852 10.1844C334.961 8.59383 334.394 7.60645 333.168 7.20995Z" fill="#F0EDED"/>
<path d="M323.135 6.71171C321.258 6.32941 318.827 8.23007 318.066 10.661C317.642 12.0363 317.736 13.588 318.317 14.4492C318.546 14.7831 318.688 14.8988 319.157 15.1255C319.84 15.4537 320.376 15.4954 321.108 15.2488C322.333 14.8628 323.296 14.0453 324.069 12.7383C324.85 11.4361 325.137 10.094 324.926 8.74244C324.797 7.91916 323.864 6.854 323.135 6.71171Z" fill="#F0EDED"/>
<path d="M322.337 17.2552C320.514 16.6702 317.571 16.7776 315.176 17.5042C313.692 17.9529 313.196 18.2583 312.732 19.0067C312.133 19.9674 312.089 20.9139 312.596 21.8328C313.013 22.5773 313.544 23.1301 314.848 24.1638C317.335 26.1163 317.853 26.9745 318.427 30.0776C318.762 31.8804 318.881 32.2399 319.285 32.8089C320.426 34.4077 321.98 34.4124 323.475 32.819C324.029 32.2233 324.822 30.8387 325.464 29.3553C326.516 26.9246 326.895 25.5124 326.988 23.7114C327.079 21.9759 326.503 20.4026 325.322 19.1385C324.728 18.504 323.178 17.5292 322.337 17.2552Z" fill="#F0EDED"/>
<path d="M334.171 24.519C332.772 24.2458 331.435 24.3994 330.201 24.9817C327.832 26.1027 326.982 28.4597 328.422 29.9412C329.592 31.1439 331.37 31.4911 333.347 30.9031C334.163 30.6603 334.54 30.4763 335.146 30.0448C335.89 29.5146 335.921 29.4767 336.314 28.7208C336.94 27.5295 336.918 26.6455 336.252 25.8241C335.861 25.3518 334.712 24.6309 334.171 24.519Z" fill="#F0EDED"/>
<path d="M58.8717 108.317C58.4176 107.931 58.0838 107.817 57.3345 107.767C56.016 107.67 54.6924 108.108 53.543 109.035C52.4101 109.937 51.7284 111.03 51.5104 112.268C51.3531 113.173 51.4582 113.68 51.9062 114.282C53.5406 116.446 57.923 115.047 59.3491 111.908C59.5036 111.574 59.6748 111.102 59.7255 110.852C59.918 110.042 59.5213 108.855 58.8717 108.317Z" fill="#F0EDED"/>
</svg>
